HIERARCHY
ROOT Hips
{
	OFFSET 0.00000 0.00000 0.00000
	CHANNELS 6 Xposition Yposition Zposition Zrotation Yrotation Xrotation 
	JOINT LHipJoint
	{
		OFFSET 0 0 0
		CHANNELS 3 Zrotation Yrotation Xrotation
		JOINT LeftUpLeg
		{
			OFFSET 1.36443 -1.53315 0.80540
			CHANNELS 3 Zrotation Yrotation Xrotation
			JOINT LeftLeg
			{
				OFFSET 2.27494 -6.25036 0.00000
				CHANNELS 3 Zrotation Yrotation Xrotation
				JOINT LeftFoot
				{
					OFFSET 2.17461 -5.97470 0.00000
					CHANNELS 3 Zrotation Yrotation Xrotation
					JOINT LeftToeBase
					{
						OFFSET 0.22144 -0.60841 2.08966
						CHANNELS 3 Zrotation Yrotation Xrotation
						End Site
						{
							OFFSET 0.00000 -0.00000 1.09206
						}
					}
				}
			}
		}
	}
	JOINT RHipJoint
	{
		OFFSET 0 0 0
		CHANNELS 3 Zrotation Yrotation Xrotation
		JOINT RightUpLeg
		{
			OFFSET -1.29957 -1.53315 0.80539
			CHANNELS 3 Zrotation Yrotation Xrotation
			JOINT RightLeg
			{
				OFFSET -2.23917 -6.15209 0.00000
				CHANNELS 3 Zrotation Yrotation Xrotation
				JOINT RightFoot
				{
					OFFSET -2.18029 -5.99030 0.00000
					CHANNELS 3 Zrotation Yrotation Xrotation
					JOINT RightToeBase
					{
						OFFSET -0.22354 -0.61416 1.89975
						CHANNELS 3 Zrotation Yrotation Xrotation
						End Site
						{
							OFFSET -0.00000 -0.00000 1.00221
						}
					}
				}
			}
		}
	}
	JOINT LowerBack
	{
		OFFSET 0 0 0
		CHANNELS 3 Zrotation Yrotation Xrotation
		JOINT Spine
		{
			OFFSET -0.04725 2.10352 -0.01215
			CHANNELS 3 Zrotation Yrotation Xrotation
			JOINT Spine1
			{
				OFFSET 0.04471 2.09612 -0.07192
				CHANNELS 3 Zrotation Yrotation Xrotation
				JOINT Neck
				{
					OFFSET 0 0 0
					CHANNELS 3 Zrotation Yrotation Xrotation
					JOINT Neck1
					{
						OFFSET -0.01586 1.38087 0.11506
						CHANNELS 3 Zrotation Yrotation Xrotation
						JOINT Head
						{
							OFFSET -0.01055 1.38869 -0.12115
							CHANNELS 3 Zrotation Yrotation Xrotation
							End Site
							{
								OFFSET -0.00310 1.39537 -0.05348
							}
						}
					}
				}
				JOINT LeftShoulder
				{
					OFFSET 0 0 0
					CHANNELS 3 Zrotation Yrotation Xrotation
					JOINT LeftArm
					{
						OFFSET 2.71932 0.62535 0.37316
						CHANNELS 3 Zrotation Yrotation Xrotation
						JOINT LeftForeArm
						{
							OFFSET 4.47366 -0.00000 0.00000
							CHANNELS 3 Zrotation Yrotation Xrotation
							JOINT LeftHand
							{
								OFFSET 3.19948 -0.00000 -0.00000
								CHANNELS 3 Zrotation Yrotation Xrotation
								JOINT LeftFingerBase
								{
									OFFSET 0 0 0
									CHANNELS 3 Zrotation Yrotation Xrotation
									JOINT LeftHandIndex1
									{
										OFFSET 0.49267 -0.00000 -0.00000
										CHANNELS 3 Zrotation Yrotation Xrotation
										End Site
										{
											OFFSET 0.39720 -0.00000 -0.00000
										}
									}
								}
								JOINT LThumb
								{
									OFFSET 0 0 0
									CHANNELS 3 Zrotation Yrotation Xrotation
									End Site
									{
										OFFSET 0.40327 -0.00000 0.40327
									}
								}
							}
						}
					}
				}
				JOINT RightShoulder
				{
					OFFSET 0 0 0
					CHANNELS 3 Zrotation Yrotation Xrotation
					JOINT RightArm
					{
						OFFSET -2.97334 0.70851 0.47631
						CHANNELS 3 Zrotation Yrotation Xrotation
						JOINT RightForeArm
						{
							OFFSET -4.32690 -0.00000 -0.00000
							CHANNELS 3 Zrotation Yrotation Xrotation
							JOINT RightHand
							{
								OFFSET -3.18960 -0.00000 0.00000
								CHANNELS 3 Zrotation Yrotation Xrotation
								JOINT RightFingerBase
								{
									OFFSET 0 0 0
									CHANNELS 3 Zrotation Yrotation Xrotation
									JOINT RightHandIndex1
									{
										OFFSET -0.46450 -0.00000 -0.00000
										CHANNELS 3 Zrotation Yrotation Xrotation
										End Site
										{
											OFFSET -0.37449 -0.00000 -0.00000
										}
									}
								}
								JOINT RThumb
								{
									OFFSET 0 0 0
									CHANNELS 3 Zrotation Yrotation Xrotation
									End Site
									{
										OFFSET -0.38021 -0.00000 0.38021
									}
								}
							}
						}
					}
				}
			}
		}
	}
}
MOTION
Frames: 8
Frame Time: 0.0344828
0.00 0.00 0.00 0 0 0 0 0 0 -21 0 0 0 0 0 0 0 0 0 0 0 0 0 0 21 0 0 0 0 0 0 0 0 0 0 0 0 0 0 0 0 0 0 0 0 0 0 -16 0 0 21 0 0 11 0 0 0 -8 0 0 0 0 0 0 0 0 0 0 0 0 0 0 0 0 0 0 0 0 8 0 0 0 0 0 0 0 0 0 0 0 0 0 0 0 0 0
0.00 0.00 0.00 4.6473 1.2109 4.6653 0.0000 0.0000 0.0000 -18.4149 0.0082 -9.9939 2.2482 9.3650 26.9437 0.8266 11.8262 -25.2163 1.0386 -6.4815 -18.1882 0.0000 0.0000 0.0000 11.1305 10.3710 -3.2462 -2.1345 -9.1408 26.2369 -0.6712 -22.0693 -35.2026 -0.2011 -2.8875 7.9656 -5.2883 -0.3678 -2.5678 0.7425 -0.5076 -6.8866 3.7483 0.0540 -5.6817 -3.7971 -3.5148 -17.4925 6.4817 -3.5146 -15.5842 2.6563 -1.5794 -1.9552 -0.0000 -0.0000 0.0000 6.8806 -16.5877 -55.2089 135.6505 -50.4458 -98.2639 -0.0000 0.0000 -7.3879 58.0087 -6.2048 -9.8165 -7.1250 0.0000 -0.0000 21.7451 18.7454 -14.6977 -0.0000 -0.0000 0.0000 -17.6422 10.4432 -62.2879 -125.5603 54.6364 -90.2415 0.0000 0.0000 9.8671 -44.6406 -32.6674 28.0590 7.1250 -0.0000 -0.0000 -20.7307 -71.0315 13.0423
0.00 0.00 0.00 4.0324 0.8679 10.0567 0.0000 0.0000 0.0000 -18.1601 -1.6199 -18.2942 2.7448 10.2700 29.8557 1.6349 7.2598 -27.7138 0.6721 -5.2426 -14.6017 0.0000 0.0000 0.0000 9.9042 13.0012 -10.1160 -2.3135 -9.4907 27.3426 -1.7616 -20.5629 -39.2438 -0.0632 -1.6219 4.4619 -3.1750 0.0636 1.8328 1.8273 0.0234 -6.2951 3.7011 0.2710 -7.6244 -3.6739 -2.5977 -17.4728 4.7961 -2.3123 -21.4893 2.0819 -1.0146 -3.6855 0.0000 0.0000 0.0000 -38.5679 10.6262 -35.7678 127.7996 -53.8453 -92.0587 -0.0000 0.0000 -4.6058 63.9229 -6.6003 -13.2172 -7.1250 0.0000 -0.0000 25.0498 15.9440 -19.1540 0.0000 0.0000 0.0000 24.1903 -7.1028 -54.4137 -132.8139 51.7956 -96.0554 0.0000 0.0000 1.3362 -56.0367 -38.7991 42.9303 7.1250 -0.0000 -0.0000 -64.6102 -79.6826 54.8096
0.00 0.00 0.00 4.5392 -0.4512 12.6598 0.0000 0.0000 0.0000 -19.2440 -2.9182 -20.5859 2.6950 10.1842 29.5752 1.6758 5.4533 -26.9307 0.7724 -5.6118 -15.6622 0.0000 0.0000 0.0000 7.7379 14.5721 -13.5020 -2.3878 -9.6310 27.7900 -1.0215 -20.7345 -35.6352 -0.0264 -1.0489 2.8834 -2.9047 0.7097 3.5943 1.7869 0.8666 -6.7015 3.4279 0.7046 -9.1763 -3.1019 -2.0998 -16.7473 3.8676 -1.8247 -23.6910 1.7380 -0.8020 -4.5281 0.0000 0.0000 0.0000 -51.6469 17.3389 -28.8692 111.3378 -58.2077 -78.3679 -0.0000 0.0000 -1.2059 64.0028 -8.1105 -16.1351 -7.1250 0.0000 -0.0000 24.5048 12.9734 -20.3812 0.0000 0.0000 0.0000 40.0200 -13.0524 -46.1374 -128.9260 53.4196 -92.9657 0.0000 0.0000 2.5124 -53.7922 -38.2864 40.2421 7.1250 -0.0000 -0.0000 -53.2580 -79.1740 44.0063
0.00 0.00 0.00 5.8614 -1.2488 14.2259 0.0000 0.0000 0.0000 -21.5253 -3.9903 -20.5619 2.5060 9.8487 28.4883 1.3347 5.8506 -24.6428 1.1075 -6.6863 -18.7892 0.0000 0.0000 0.0000 4.8051 11.6857 -17.8270 -2.9406 -10.5982 30.9364 -0.4645 -19.1675 -30.4931 -0.0029 0.3503 -0.9625 -3.4103 1.2401 4.4910 1.6825 1.5086 -6.8851 3.5140 1.0694 -9.9877 -2.7411 -1.7415 -16.0345 3.3895 -1.4643 -23.8989 1.5360 -0.6422 -4.7155 -0.0000 0.0000 0.0000 -62.5805 19.8306 -23.3140 84.4487 -59.8832 -55.1943 -0.0000 -0.0000 0.2109 64.2751 -7.7968 -15.7256 -7.1250 0.0000 -0.0000 24.7695 13.4406 -20.3799 -0.0000 0.0000 0.0000 55.0636 -16.0791 -36.5559 -113.2715 57.8514 -80.0083 0.0000 0.0000 8.7476 -49.7657 -35.5769 34.5134 7.1250 -0.0000 -0.0000 -34.5449 -75.7206 25.5895
0.00 0.00 0.00 6.0162 -1.6382 13.6260 0.0000 0.0000 0.0000 -22.5006 -3.1355 -19.3775 2.5757 9.9743 28.8937 1.3938 6.1363 -25.2713 1.2961 -7.2130 -20.3481 0.0000 0.0000 0.0000 3.3105 5.5603 -23.6897 -4.6448 -12.9722 39.2646 -0.7316 -12.2567 -24.8565 -0.0741 1.7562 -4.8325 -2.9213 1.5565 5.5894 2.1416 1.9992 -6.7319 3.6470 1.2988 -10.5218 -2.6118 -1.5172 -16.0323 2.8207 -1.2629 -23.9186 1.3349 -0.5353 -4.7373 0.0000 0.0000 0.0000 -67.3616 19.3486 -21.8010 66.6812 -57.8422 -39.9517 -0.0000 0.0000 -0.8668 64.5828 -7.8808 -16.0948 -7.1250 0.0000 -0.0000 24.9014 13.1167 -20.7053 0.0000 0.0000 0.0000 59.7642 -15.2857 -33.8299 -90.1252 59.9999 -60.1084 0.0000 0.0000 12.5662 -50.9118 -34.8841 35.1471 7.1250 -0.0000 -0.0000 -37.1363 -75.2786 27.2887
0.00 0.00 0.00 5.9699 -0.5600 12.1620 0.0000 0.0000 0.0000 -22.6182 0.2678 -12.4157 1.8283 8.4989 24.2398 1.2517 6.1706 -24.1890 2.1076 -9.0867 -26.0669 0.0000 0.0000 0.0000 1.4725 3.9316 -33.3244 -6.1425 -14.5650 45.5509 -1.1028 -4.4405 -21.9041 -0.2743 3.3690 -9.3077 -2.6450 1.3556 5.0942 3.0431 1.8426 -6.5052 4.4950 1.2318 -9.9856 -3.5330 -1.2125 -16.3587 3.0300 -0.7061 -23.3063 1.5566 -0.1960 -4.5056 0.0000 0.0000 0.0000 -68.1314 19.1341 -18.6522 48.1827 -52.2357 -24.7301 -0.0000 0.0000 -8.3299 62.9388 -6.1914 -11.9207 -7.1250 0.0000 -0.0000 24.6660 17.1422 -18.0682 0.0000 0.0000 0.0000 61.8137 -18.0996 -29.4670 -51.7468 53.6762 -27.5754 0.0000 0.0000 10.4912 -46.4991 -35.6441 31.5528 7.1250 -0.0000 -0.0000 -25.7570 -74.8791 18.4243
0.00 0.00 0.00 6.7144 3.5012 7.9961 0.0000 0.0000 0.0000 -17.9108 5.3890 -10.0848 4.6274 12.9515 39.1870 0.2205 9.7250 -17.0537 1.5787 -7.9272 -22.4931 0.0000 0.0000 0.0000 6.7309 9.9314 -25.4419 -4.6523 -12.9812 39.2980 -0.1996 -11.5704 -18.9901 -1.0467 6.5061 -18.2600 -3.6700 0.1075 -0.5535 2.7036 0.1840 -6.7556 4.8894 0.4025 -6.7678 -4.2758 -1.2374 -16.2399 1.6025 -0.8647 -18.7004 1.2463 -0.1899 -3.4268 -0.0000 0.0000 0.0000 -67.2442 18.5806 -15.0142 42.1366 -49.2860 -20.0440 -0.0000 0.0000 -18.1752 60.4949 -2.4080 -4.2463 -7.1250 0.0000 -0.0000 24.7910 24.9030 -13.2759 -0.0000 0.0000 0.0000 65.9348 -24.1542 -17.8057 -31.2632 41.9519 -12.2454 0.0000 0.0000 15.6841 -35.6176 -32.0164 20.7971 7.1250 -0.0000 -0.0000 -5.3980 -67.4732 2.9215
